<?xml version="1.0" standalone="no"?>
<!DOCTYPE svg PUBLIC "-//W3C//DTD SVG 1.1//EN" "http://www.w3.org/Graphics/SVG/1.1/DTD/svg11.dtd">
<svg xmlns="http://www.w3.org/2000/svg" xmlns:xlink="http://www.w3.org/1999/xlink" version="1.1" width="256" height="256" style="shape-rendering:geometricPrecision; text-rendering:geometricPrecision; image-rendering:optimizeQuality; fill-rule:evenodd; clip-rule:evenodd" viewBox="0 0 256 256">
<g><path style="opacity:0.969" fill="#056ebc" d="M 123.5,8.5 C 129.986,6.83464 132.819,9.16797 132,15.5C 125.749,25.6705 119.249,35.6705 112.5,45.5C 109.462,46.7308 106.462,46.5641 103.5,45C 99.1667,44.3333 94.8333,44.3333 90.5,45C 86.3854,46.2252 82.3854,47.7252 78.5,49.5C 73.613,47.8045 71.4463,44.4712 72,39.5C 89.1472,29.0151 106.314,18.6818 123.5,8.5 Z"/></g>
<g><path style="opacity:0.984" fill="#056ebc" d="M 138.5,16.5 C 142.511,16.5016 146.178,17.6683 149.5,20C 157.083,24.3742 164.583,28.8742 172,33.5C 174.061,46.1034 175.061,58.77 175,71.5C 167.619,74.2158 162.119,79.0491 158.5,86C 148.514,85.7554 138.848,83.7554 129.5,80C 128.977,69.4271 125.144,60.2604 118,52.5C 117.448,49.5808 118.115,46.9141 120,44.5C 125.996,35.0134 132.163,25.68 138.5,16.5 Z"/></g>
<g><path style="opacity:0.966" fill="#056ebc" d="M 181.5,41.5 C 183.527,41.3379 185.527,41.5045 187.5,42C 196.332,46.9149 204.999,52.0816 213.5,57.5C 214.485,59.0983 214.651,60.765 214,62.5C 209.833,66.6667 205.667,70.8333 201.5,75C 199.5,75.6667 197.5,75.6667 195.5,75C 190.971,73.1693 186.637,71.1693 182.5,69C 181.501,61.342 180.501,53.6754 179.5,46C 179.519,44.167 180.185,42.667 181.5,41.5 Z"/></g>
<g><path style="opacity:0.979" fill="#056ebc" d="M 59.5,45.5 C 66.0812,45.7314 70.4145,49.0648 72.5,55.5C 67.3162,63.8542 64.9828,72.8542 65.5,82.5C 57.7321,86.1471 49.7321,89.3138 41.5,92C 36.2997,94.1841 30.9664,95.5174 25.5,96C 25,95.5 24.5,95 24,94.5C 23.3333,85.1667 23.3333,75.8333 24,66.5C 36.1439,59.8517 47.9772,52.8517 59.5,45.5 Z"/></g>
<g><path style="opacity:0.982" fill="#056ebb" d="M 221.5,63.5 C 225.025,63.3459 227.859,64.6792 230,67.5C 230.667,90.5 230.667,113.5 230,136.5C 221.947,142.115 213.447,147.115 204.5,151.5C 201.223,149.946 198.056,148.279 195,146.5C 192.881,138.579 191.547,130.579 191,122.5C 201.43,117.135 207.264,108.635 208.5,97C 208.086,92.923 206.919,89.0896 205,85.5C 204.333,83.5 204.333,81.5 205,79.5C 210.395,73.9362 215.895,68.6029 221.5,63.5 Z"/></g>
<g><path style="opacity:0.979" fill="#056ebc" d="M 127.5,86.5 C 136.615,88.3622 145.615,90.6956 154.5,93.5C 155.405,100.266 157.572,106.6 161,112.5C 163.767,114.758 165.934,117.425 167.5,120.5C 159.458,138.788 151.125,156.954 142.5,175C 141.788,176.442 140.621,177.275 139,177.5C 137.765,176.385 136.598,176.385 135.5,177.5C 126.874,153.789 118.54,129.956 110.5,106C 112.933,102.234 116.099,99.067 120,96.5C 122.289,92.8812 124.789,89.5479 127.5,86.5 Z"/></g>
<g><path style="opacity:0.985" fill="#22a1e8" d="M 64.5,89.5 C 66.1992,89.3398 67.8659,89.5065 69.5,90C 72.2969,93.7988 75.4636,97.2988 79,100.5C 79.1667,101.5 79.3333,102.5 79.5,103.5C 74.6187,114.932 69.452,126.265 64,137.5C 49.2795,138.89 40.1128,146.724 36.5,161C 32.9284,162.48 29.2618,163.146 25.5,163C 25,162.5 24.5,162 24,161.5C 23.3333,142.833 23.3333,124.167 24,105.5C 24.9025,104.299 26.0692,103.465 27.5,103C 40.0467,98.7654 52.3801,94.2654 64.5,89.5 Z"/></g>
<g><path style="opacity:0.981" fill="#056ebc" d="M 86.5,105.5 C 92.1625,105.969 97.8291,106.469 103.5,107C 104,107.5 104.5,108 105,108.5C 112.833,131.333 120.667,154.167 128.5,177C 127.024,182.138 123.69,183.805 118.5,182C 104.44,175.885 90.6062,169.385 77,162.5C 76.769,158.416 76.1024,154.416 75,150.5C 73.1051,147.295 71.2717,144.128 69.5,141C 74.2357,128.696 79.9023,116.863 86.5,105.5 Z"/></g>
<g><path style="opacity:0.971" fill="#056ebc" d="M 174.5,122.5 C 177.833,122.833 181.167,123.167 184.5,123.5C 185.767,131 187.1,138.5 188.5,146C 188.333,147.167 188.167,148.333 188,149.5C 183.367,153.386 181.034,158.386 181,164.5C 172.082,170.377 162.915,175.877 153.5,181C 151.527,181.495 149.527,181.662 147.5,181.5C 147.523,179.073 148.023,176.74 149,174.5C 157.29,156.921 165.79,139.588 174.5,122.5 Z"/></g>
<g><path style="opacity:0.969" fill="#056ebb" d="M 223.5,147.5 C 226.044,147.104 228.211,147.771 230,149.5C 230.667,161.833 230.667,174.167 230,186.5C 228.612,187.554 227.112,187.72 225.5,187C 218.585,180.59 212.252,173.757 206.5,166.5C 207.139,163.525 207.639,160.525 208,157.5C 213.146,154.018 218.313,150.685 223.5,147.5 Z"/></g>
<g><path style="opacity:0.982" fill="#22a1e8" d="M 37.5,166.5 C 40.8477,167.012 43.1811,168.845 44.5,172C 48.9084,175.413 53.9084,176.913 59.5,176.5C 61.5742,185.298 63.5742,194.132 65.5,203C 65.8393,206.328 64.3393,208.161 61,208.5C 48.3363,201.67 36.0029,194.337 24,186.5C 23.3333,181.5 23.3333,176.5 24,171.5C 28.5545,169.707 33.0545,168.041 37.5,166.5 Z"/></g>
<g><path style="opacity:0.983" fill="#23a1e8" d="M 71.5,169.5 C 75.4102,169.263 79.0769,170.096 82.5,172C 95.1959,177.431 107.696,183.265 120,189.5C 121.168,194.482 121.835,199.482 122,204.5C 114.137,212.698 105.97,220.531 97.5,228C 95.7111,228.52 94.0444,228.187 92.5,227C 87.8333,224.333 83.1667,221.667 78.5,219C 77,218.167 75.8333,217 75,215.5C 71.8333,202.833 68.6667,190.167 65.5,177.5C 67.1063,174.557 69.1063,171.891 71.5,169.5 Z"/></g>
<g><path style="opacity:0.984" fill="#22a1e8" d="M 182.5,170.5 C 185.425,170.46 188.091,171.293 190.5,173C 194.045,173.717 197.545,173.55 201,172.5C 208.5,177.333 214.667,183.5 219.5,191C 218.899,192.605 217.899,193.938 216.5,195C 202.003,203.081 187.669,211.414 173.5,220C 171.5,220.667 169.5,220.667 167.5,220C 161.967,214.802 156.8,209.302 152,203.5C 152.923,198.293 153.59,192.959 154,187.5C 163.646,181.933 173.146,176.266 182.5,170.5 Z"/></g>
<g><path style="opacity:0.977" fill="#23a1e8" d="M 125.5,208.5 C 133.168,209.664 140.834,209.83 148.5,209C 152.667,213.167 156.833,217.333 161,221.5C 161.667,223.167 161.667,224.833 161,226.5C 150.747,233.045 140.247,239.212 129.5,245C 124.796,245.163 120.463,243.83 116.5,241C 113,238.833 109.5,236.667 106,234.5C 105.333,232.5 105.333,230.5 106,228.5C 112.703,221.965 119.203,215.298 125.5,208.5 Z"/></g>
</svg>